<svg xmlns="http://www.w3.org/2000/svg" xmlns:xlink="http://www.w3.org/1999/xlink" width="2512" height="1579.2" xml:space="preserve">
 <g>
  <title>Layer 1</title>
  <g id="svg_134">
   <g id="svg_135">
    <g id="svg_136">
     <g id="svg_137">
      <defs>
       <polygon id="SVGID_108_" points="1143.6,766.1 1738.3,766.1 1738.3,1094.4 1123.6,1084.4 "/>
      </defs>
      <clipPath id="SVGID_109_">
       <use xlink:href="#SVGID_108_" id="svg_138"/>
      </clipPath>
     </g>
    </g>
   </g>
  </g>
  <g id="svg_322">
   <defs>
    <path id="SVGID_286_" d="m2075.2,521c-0.9,-0.9 -2.4,-1.2 -3.6,-0.6c-1.6,0.8 -2.2,2.7 -1.5,4.3c0.8,1.6 2.7,2.2 4.3,1.5c1.3,-0.6 1.9,-1.9 1.8,-3.3l29.8,-14.6l24.9,8.4l1,-1.9l-26,-8.8l-30.7,15z"/>
   </defs>
   <clipPath id="SVGID_287_">
    <use xlink:href="#SVGID_286_" id="svg_323"/>
   </clipPath>
   <defs>
    <filter id="Adobe_OpacityMaskFilter_6_" x="2059.3" y="476.3" width="82.4" height="80.4"/>
   </defs>
   <mask maskUnits="userSpaceOnUse" x="2059.3" y="476.3" width="82.4" height="80.4" id="SVGID_288_">
    <g class="st104" filter="url(#Adobe_OpacityMaskFilter_6_)" id="svg_324">
     <polygon class="st105" points="2109.9,476.3 2141.7,519.6 2091.1,556.7 2059.3,513.3 " clip-path="url(#SVGID_287_)" fill="url(#SVGID_289_)" id="svg_325"/>
    </g>
   </mask>
   <polygon class="st106" points="2109.9,476.3 2141.7,519.6 2091.1,556.7 2059.3,513.3 " clip-path="url(#SVGID_287_)" mask="url(#SVGID_288_)" fill="url(#SVGID_290_)" id="svg_326"/>
  </g>
  <g id="svg_332">
   <defs>
    <path id="SVGID_296_" d="m2098.4,525.3c-0.9,-0.9 -2.4,-1.2 -3.6,-0.6c-1.6,0.8 -2.2,2.7 -1.5,4.3c0.8,1.6 2.7,2.2 4.3,1.5c1.3,-0.6 1.9,-2 1.8,-3.3l7.2,-3.6l15.1,5.1l1.6,-1.7l-16.9,-5.7l-8,4z"/>
   </defs>
   <clipPath id="SVGID_297_">
    <use xlink:href="#SVGID_296_" id="svg_333"/>
   </clipPath>
   <defs>
    <filter id="Adobe_OpacityMaskFilter_8_" x="2087.9" y="506.6" width="40.2" height="39.2"/>
   </defs>
   <mask maskUnits="userSpaceOnUse" x="2087.9" y="506.6" width="40.2" height="39.2" id="SVGID_298_">
    <g class="st110" filter="url(#Adobe_OpacityMaskFilter_8_)" id="svg_334">
     <polygon class="st111" points="2112.6,506.6 2128,527.7 2103.3,545.9 2087.9,524.8 " clip-path="url(#SVGID_297_)" fill="url(#SVGID_299_)" id="svg_335"/>
    </g>
   </mask>
   <polygon class="st112" points="2112.6,506.6 2128,527.7 2103.3,545.9 2087.9,524.8 " clip-path="url(#SVGID_297_)" mask="url(#SVGID_298_)" fill="url(#SVGID_300_)" id="svg_336"/>
  </g>
  <g id="svg_357">
   <defs>
    <path id="SVGID_321_" d="m2123.9,447.4c-0.6,1.7 0.3,3.5 2,4c1.3,0.5 2.7,0 3.5,-1.1l27.7,9.4l-0.2,-2.3l-26.8,-9.1c0,-1.3 -0.8,-2.5 -2.2,-3c-0.3,-0.1 -0.7,-0.2 -1,-0.2c-1.3,0.1 -2.5,0.9 -3,2.3"/>
   </defs>
   <clipPath id="SVGID_322_">
    <use xlink:href="#SVGID_321_" id="svg_358"/>
   </clipPath>
   <defs>
    <filter id="Adobe_OpacityMaskFilter_13_" x="2116.4" y="429.1" width="47.7" height="46.8"/>
   </defs>
   <mask maskUnits="userSpaceOnUse" x="2116.4" y="429.1" width="47.7" height="46.8" id="SVGID_323_">
    <g class="st125" filter="url(#Adobe_OpacityMaskFilter_13_)" id="svg_359">
     <polygon class="st126" points="2145.4,429.1 2164.1,454.7 2135.1,475.9 2116.4,450.3 " clip-path="url(#SVGID_322_)" fill="url(#SVGID_324_)" id="svg_360"/>
    </g>
   </mask>
   <polygon class="st127" points="2145.4,429.1 2164.1,454.7 2135.1,475.9 2116.4,450.3 " clip-path="url(#SVGID_322_)" mask="url(#SVGID_323_)" fill="url(#SVGID_325_)" id="svg_361"/>
  </g>
  <g id="svg_362">
   <defs>
    <path id="SVGID_326_" d="m2106.6,440.2c-0.6,1.7 0.3,3.5 2,4c0.5,0.2 1,0.2 1.4,0.1l3.9,8l41.7,14.3l1,2.1l0.2,-3.9l-41.4,-14.2l-3.6,-7.2c0.3,-0.3 0.6,-0.7 0.8,-1.2c0.6,-1.7 -0.3,-3.5 -2,-4c-0.3,-0.1 -0.7,-0.2 -1,-0.2c-1.3,0 -2.5,0.8 -3,2.2"/>
   </defs>
   <clipPath id="SVGID_327_">
    <use xlink:href="#SVGID_326_" id="svg_363"/>
   </clipPath>
   <defs>
    <filter id="Adobe_OpacityMaskFilter_14_" x="2091.4" y="413.8" width="80.2" height="79.2"/>
   </defs>
   <mask maskUnits="userSpaceOnUse" x="2091.4" y="413.8" width="80.2" height="79.2" id="SVGID_328_">
    <g class="st128" filter="url(#Adobe_OpacityMaskFilter_14_)" id="svg_364">
     <polygon class="st129" points="2139.2,413.8 2171.6,458.1 2123.8,493 2091.4,448.8 " clip-path="url(#SVGID_327_)" fill="url(#SVGID_329_)" id="svg_365"/>
    </g>
   </mask>
   <polygon class="st130" points="2139.2,413.8 2171.6,458.1 2123.8,493 2091.4,448.8 " clip-path="url(#SVGID_327_)" mask="url(#SVGID_328_)" fill="url(#SVGID_330_)" id="svg_366"/>
  </g>
  <g id="svg_367">
   <defs>
    <path id="SVGID_331_" d="m2137.4,466.8c-0.6,1.7 0.3,3.5 2,4c1.3,0.5 2.7,0 3.6,-1.1l7.6,2.6l3.8,7.6l0.8,-3.1l-3.1,-6.3l-8.5,-2.9c0,-1.3 -0.8,-2.5 -2.2,-3c-0.3,-0.1 -0.7,-0.2 -1,-0.2c-1.3,0.3 -2.6,1.1 -3,2.4"/>
   </defs>
   <clipPath id="SVGID_332_">
    <use xlink:href="#SVGID_331_" id="svg_368"/>
   </clipPath>
   <defs>
    <filter id="Adobe_OpacityMaskFilter_15_" x="2129.5" y="455.9" width="32.9" height="32.8"/>
   </defs>
   <mask maskUnits="userSpaceOnUse" x="2129.5" y="455.9" width="32.9" height="32.8" id="SVGID_333_">
    <g class="st131" filter="url(#Adobe_OpacityMaskFilter_15_)" id="svg_369">
     <polygon class="st132" points="2148.7,455.9 2162.4,474.6 2143.2,488.7 2129.5,470 " clip-path="url(#SVGID_332_)" fill="url(#SVGID_334_)" id="svg_370"/>
    </g>
   </mask>
   <polygon class="st133" points="2148.7,455.9 2162.4,474.6 2143.2,488.7 2129.5,470 " clip-path="url(#SVGID_332_)" mask="url(#SVGID_333_)" fill="url(#SVGID_335_)" id="svg_371"/>
  </g>
  <g id="svg_407">
   <defs>
    <path id="SVGID_371_" d="m2088.1,407.9c-1.3,0.5 -2.2,1.7 -2.2,3l-17.8,6.5l-2.4,5l1.1,2.5l2.8,-5.8l17,-6.2c0.8,1 2.2,1.5 3.5,1c1.7,-0.6 2.6,-2.4 2,-4c-0.5,-1.3 -1.7,-2.2 -3,-2.2c-0.3,0 -0.7,0.1 -1,0.2"/>
   </defs>
   <clipPath id="SVGID_372_">
    <use xlink:href="#SVGID_371_" id="svg_408"/>
   </clipPath>
   <defs>
    <filter id="Adobe_OpacityMaskFilter_23_" x="2057.5" y="394.9" width="43.3" height="42.9"/>
   </defs>
   <mask maskUnits="userSpaceOnUse" x="2057.5" y="394.9" width="43.3" height="42.9" id="SVGID_373_">
    <g class="st155" filter="url(#Adobe_OpacityMaskFilter_23_)" id="svg_409">
     <polygon class="st156" points="2083.3,394.9 2100.9,418.9 2075.1,437.7 2057.5,413.7 " clip-path="url(#SVGID_372_)" fill="url(#SVGID_374_)" id="svg_410"/>
    </g>
   </mask>
   <polygon class="st157" points="2083.3,394.9 2100.9,418.9 2075.1,437.7 2057.5,413.7 " clip-path="url(#SVGID_372_)" mask="url(#SVGID_373_)" fill="url(#SVGID_375_)" id="svg_411"/>
  </g>
  <g id="svg_417">
   <defs>
    <path id="SVGID_381_" d="m2110,410.4l1,1.9l5.3,-1.8l6.4,3.2c-0.2,1.3 0.5,2.7 1.8,3.3c1.6,0.8 3.5,0.1 4.3,-1.5c0.8,-1.6 0.1,-3.5 -1.5,-4.3c-1.2,-0.6 -2.7,-0.3 -3.6,0.6l-7.2,-3.6l-6.5,2.2z"/>
   </defs>
   <clipPath id="SVGID_382_">
    <use xlink:href="#SVGID_381_" id="svg_418"/>
   </clipPath>
   <defs>
    <filter id="Adobe_OpacityMaskFilter_25_" x="2105.4" y="398.9" width="28.6" height="28.1"/>
   </defs>
   <mask maskUnits="userSpaceOnUse" x="2105.4" y="398.9" width="28.6" height="28.1" id="SVGID_383_">
    <g class="st161" filter="url(#Adobe_OpacityMaskFilter_25_)" id="svg_419">
     <polygon class="st162" points="2122.7,398.9 2134,414.4 2116.8,427.1 2105.4,411.6 " clip-path="url(#SVGID_382_)" fill="url(#SVGID_384_)" id="svg_420"/>
    </g>
   </mask>
   <polygon class="st163" points="2122.7,398.9 2134,414.4 2116.8,427.1 2105.4,411.6 " clip-path="url(#SVGID_382_)" mask="url(#SVGID_383_)" fill="url(#SVGID_385_)" id="svg_421"/>
  </g>
  <g id="svg_438">
   <defs>
    <path id="SVGID_402_" d="m2065.7,1312.8c-15.3,11.4 -20.5,23.4 -11.6,27c9,3.5 28.7,-2.8 44,-14.2c15.3,-11.4 20.5,-23.4 11.6,-27c-1.7,-0.7 -3.7,-1 -6,-1c-10.1,0.1 -25.5,6 -38,15.2"/>
   </defs>
   <clipPath id="SVGID_403_">
    <use xlink:href="#SVGID_402_" id="svg_439"/>
   </clipPath>
   <polygon class="st172" points="2136.3,1335.9 2057.1,1369.2 2027.6,1305 2106.8,1271.8 " clip-path="url(#SVGID_403_)" fill="url(#SVGID_404_)" id="svg_440"/>
  </g>
  <g id="svg_447">
   <defs>
    <path id="SVGID_411_" d="m2131.9,1279.2l21.2,12.1c1.2,0.7 2.7,0.7 4,0l21.2,-12.1l-23.2,-13.3l-23.2,13.3z"/>
   </defs>
   <clipPath id="SVGID_412_">
    <use xlink:href="#SVGID_411_" id="svg_448"/>
   </clipPath>
   <rect x="2131.9" y="1265.9" class="st175" width="46.4" height="26.1" clip-path="url(#SVGID_412_)" fill="url(#SVGID_413_)" id="svg_449"/>
  </g>
  <g id="svg_453">
   <defs>
    <path id="SVGID_417_" d="m2155.1,1212l0,54.1c0,0 0.4,0 0.8,0.2s22.4,12.8 22.4,12.8l45.1,-25.9c1.2,-0.7 1.2,-2.4 0,-3.1l-66.1,-37.8c-0.4,-0.3 -0.9,-0.4 -1.5,-0.4l-0.7,0l0,0.1z"/>
   </defs>
   <clipPath id="SVGID_418_">
    <use xlink:href="#SVGID_417_" id="svg_454"/>
   </clipPath>
   <polygon class="st177" points="2246.4,1271.1 2163.4,1301.8 2133.3,1220.1 2216.2,1189.5 " clip-path="url(#SVGID_418_)" fill="url(#SVGID_419_)" id="svg_455"/>
  </g>
  <g id="svg_459">
   <defs>
    <polygon id="SVGID_423_" points="1976.7,1253.6 1976,1253.9 1975.9,1253.9 1975.8,1253.9 1975.9,1253.8 1970.2,1252.6 1960.9,1252.6 1949.1,1255.5 1939.5,1261.5 1934.6,1266.9 1933.3,1267.2 1925.2,1269.1 1921.4,1270.8 1922.3,1272.8 1931.3,1281.5 1940.2,1287.8 1950.1,1292.5 1954.3,1294.7 1959.4,1297.3 1968.6,1300.9 1979.4,1304.5 1989.8,1306.3 1994.5,1307 2002.1,1308.1 2015.8,1307.8 2024.7,1306.2 2025.7,1306 2030.1,1304.3 2038.2,1302.4 2046.2,1298.8 2051.6,1294.1 2052.7,1291.9 2046.9,1284 2037.3,1274.4 2027.2,1267 2016.6,1261.6 2006.1,1258.6 2003.2,1258.4 2003.2,1258.4 1996.4,1254.5 1989,1252.6 1982.2,1252.5 "/>
   </defs>
   <clipPath id="SVGID_424_">
    <use xlink:href="#SVGID_423_" id="svg_460"/>
   </clipPath>
   <rect x="1921.4" y="1252.5" class="st179" width="131.3" height="55.6" clip-path="url(#SVGID_424_)" fill="url(#SVGID_425_)" id="svg_461"/>
  </g>
  <g id="svg_462">
   <defs>
    <path id="SVGID_426_" d="m2116.6,1204.9l0,0l0,0z"/>
   </defs>
   <clipPath id="SVGID_427_">
    <use xlink:href="#SVGID_426_" id="svg_463"/>
   </clipPath>
   <circle class="st180" cx="2116.6" cy="1204.9" r="0" clip-path="url(#SVGID_427_)" fill="url(#SVGID_428_)" id="svg_464"/>
  </g>
  <g id="svg_465">
   <defs>
    <path id="SVGID_429_" d="m2009.7,1484.6c0,0.8 0.6,1.7 1.6,1.8l103.6,10.1c1,0.1 1.8,-0.6 1.9,-1.5c0.1,-0.5 0,-38.8 0,-38.8l-107.2,-10.3c0.1,0 0.1,38.1 0.1,38.7"/>
   </defs>
   <clipPath id="SVGID_430_">
    <use xlink:href="#SVGID_429_" id="svg_466"/>
   </clipPath>
   <polygon class="st181" points="2003,1446.8 2115,1431.7 2123.7,1495.7 2011.7,1510.8 " clip-path="url(#SVGID_430_)" fill="url(#SVGID_431_)" id="svg_467"/>
  </g>
  <g id="svg_468">
   <defs>
    <path id="SVGID_432_" d="m2076.2,1411.6l-65.5,32.6c-1.6,0.8 -1.2,3.2 0.6,3.3l103.6,10.1c1.6,0.2 2.6,-1.7 1.5,-2.9l-36.2,-42.4c-0.6,-0.8 -1.6,-1.2 -2.5,-1.2c-0.5,0.2 -1,0.3 -1.5,0.5"/>
   </defs>
   <clipPath id="SVGID_433_">
    <use xlink:href="#SVGID_432_" id="svg_469"/>
   </clipPath>
   <polygon class="st182" points="1996.9,1414.7 2109.4,1382.8 2129.7,1454.4 2017.2,1486.3 " clip-path="url(#SVGID_433_)" fill="url(#SVGID_434_)" id="svg_470"/>
  </g>
  <g id="svg_582">
   <defs>
    <path id="SVGID_546_" d="m2203,973.5l-45.4,15.9c0,0 0,33.3 0,34.8c0,0.3 0,0.6 0.1,0.9c0,0 0,0 0,0c0.1,0.5 0.3,0.9 0.6,1.4l0,0l0,0c0.5,0.8 1.3,1.5 2.4,2.2l40.9,23.6c4.2,2.4 10.9,2.4 15.1,0l42.3,-24c1.1,-0.6 1.9,-1.4 2.4,-2.2l0,0l0,0c0.3,-0.4 0.5,-0.9 0.6,-1.4c0.1,-0.2 0.1,-0.5 0.1,-0.7c0.1,-1.6 0,-35 0,-35l-44,-15.5c-2.1,-1.2 -4.8,-1.8 -7.5,-1.8c-2.8,0 -5.6,0.6 -7.6,1.8"/>
   </defs>
   <clipPath id="SVGID_547_">
    <use xlink:href="#SVGID_546_" id="svg_583"/>
   </clipPath>
   <rect x="2157.5" y="971.7" class="st248" width="104.5" height="82.9" clip-path="url(#SVGID_547_)" fill="url(#SVGID_548_)" id="svg_584"/>
  </g>
  <g id="svg_585">
   <defs>
    <path id="SVGID_549_" d="m2203,961l-42.3,24c-2.4,1.4 -3.4,3.3 -3,5.1c0,0 0,0 0,0c0.1,0.5 0.3,0.9 0.6,1.4l0,0l0,0c0.5,0.8 1.3,1.5 2.4,2.2l40.9,23.6c4.2,2.4 10.9,2.4 15.1,0l42.3,-24c1.1,-0.6 1.9,-1.4 2.4,-2.2l0,0l0,0c0.3,-0.4 0.5,-0.9 0.6,-1.4c0.4,-1.8 -0.6,-3.7 -3,-5.1l-41,-23.6c-2.1,-1.2 -4.8,-1.8 -7.5,-1.8c-2.7,0 -5.5,0.6 -7.5,1.8"/>
   </defs>
   <clipPath id="SVGID_550_">
    <use x="-933.33337" y="-146.66667" xlink:href="#SVGID_549_" id="svg_586"/>
   </clipPath>
   <polygon transform="translate(-933.333 -146.667)" class="st249" points="2149.7,960.2 2260.7,946.2 2269.8,1018.7 2158.8,1032.7 " clip-path="url(#SVGID_550_)" fill="url(#SVGID_551_)" id="svg_587"/>
  </g>
  <g stroke="null">
   <title stroke="null">Rust programming language logo</title>
   <metadata stroke="null">image/svg+xml</metadata>
   <path stroke="null" d="m1948.68636,779.78991l-56.69132,-35.12537c-0.47781,-5.52708 -1.02019,-11.04125 -1.61422,-16.52959l48.81394,-45.45636c4.95888,-4.62312 7.18004,-11.4674 5.83701,-18.07924c-1.30429,-6.65058 -5.96615,-12.126 -12.30679,-14.46339l-62.37336,-23.24473c-1.56256,-5.39794 -3.20261,-10.75715 -4.88139,-16.14218l38.87036,-53.97943c3.96452,-5.48834 4.77808,-12.62964 2.19534,-18.85406c-2.58275,-6.23734 -8.22605,-10.70549 -14.8508,-11.80316l-65.73094,-10.69258c-2.55692,-4.9847 -5.21715,-9.89192 -7.90321,-14.72166l27.6354,-60.69458c2.82811,-6.17277 2.24699,-13.30115 -1.52382,-18.9832c-3.7579,-5.63039 -10.12437,-8.92339 -16.917,-8.66512l-66.76404,2.32447c-3.44797,-4.31319 -6.96051,-8.58764 -10.53761,-12.7846l15.36735,-64.95611c1.54965,-6.59892 -0.40033,-13.55943 -5.20424,-18.33751c-4.76517,-4.77808 -11.68693,-6.75389 -18.33751,-5.20424l-64.95611,15.36735c-4.20988,-3.56419 -8.48433,-7.08964 -12.81043,-10.53761l2.33739,-66.76404c0.25827,-6.75389 -3.03473,-13.17201 -8.66512,-16.917c-5.6433,-3.77081 -12.7846,-4.33902 -18.9832,-1.53674l-60.56544,27.6354c-4.89431,-2.68606 -9.80153,-5.34629 -14.72166,-7.91612l-10.7184,-65.73094c-1.08475,-6.66349 -5.55291,-12.31971 -11.80316,-14.8508c-6.23734,-2.59566 -13.43029,-1.75627 -18.85406,2.19534l-53.97943,38.87036c-5.32046,-1.6917 -10.66675,-3.31883 -16.01304,-4.86848l-23.24473,-62.37336c-2.36321,-6.35356 -7.83864,-11.01542 -14.46339,-12.33262c-6.63766,-1.30429 -13.43029,0.90396 -18.07924,5.83701l-45.45636,48.81394c-5.48834,-0.60695 -11.01542,-1.16224 -16.52959,-1.61422l-35.12537,-56.82046c-3.55128,-5.74661 -9.84027,-9.24624 -16.65872,-9.24624s-13.04288,3.49962 -16.52959,9.24624l-35.12537,56.82046c-5.52708,0.45198 -11.05416,1.00727 -16.52959,1.61422l-45.45636,-48.81394c-4.61021,-4.93305 -11.45449,-7.1413 -18.07924,-5.83701c-6.65058,1.33012 -12.126,5.97906 -14.46339,12.33262l-23.24473,62.37336c-5.39794,1.54965 -10.74423,3.18969 -16.01304,4.86848l-53.97943,-38.87036c-5.48834,-3.96452 -12.64255,-4.80391 -18.85406,-2.19534c-6.23734,2.58275 -10.7184,8.23897 -11.80316,14.8508l-10.7184,65.73094c-4.95888,2.56983 -9.8661,5.21715 -14.72166,7.91612l-60.56544,-27.6354c-6.15985,-2.8152 -13.30115,-2.23408 -18.9832,1.53674c-5.63039,3.74498 -8.92339,10.16311 -8.66512,16.917l2.32447,66.76404c-4.31319,3.44797 -8.58764,6.97342 -12.81043,10.53761l-64.95611,-15.36735c-6.59892,-1.53674 -13.55943,0.42615 -18.33751,5.20424c-4.80391,4.791 -6.75389,11.69985 -5.20424,18.33751l15.23821,64.95611c-3.55128,4.20988 -7.06382,8.47141 -10.51178,12.7846l-66.76404,-2.32447c-6.72806,-0.19371 -13.17201,3.03473 -16.917,8.66512c-3.77081,5.60456 -4.33902,12.7846 -1.53674,18.9832l27.6354,60.69458c-2.68606,4.86848 -5.34629,9.7757 -7.91612,14.72166l-65.73094,10.69258c-6.6764,1.08475 -12.30679,5.55291 -14.8508,11.80316c-2.58275,6.26316 -1.74335,13.43029 2.19534,18.85406l38.87036,53.97943c-1.6917,5.33337 -3.33174,10.69258 -4.88139,16.14218l-62.37336,23.24473c-6.32773,2.36321 -10.98959,7.83864 -12.30679,14.46339c-1.3172,6.63766 0.89105,13.43029 5.83701,18.07924l48.81394,45.45636c-0.60695,5.48834 -1.14932,11.01542 -1.61422,16.52959l-56.69132,35.12537c-5.74661,3.55128 -9.24624,9.82736 -9.24624,16.65872s3.49962,13.04288 9.24624,16.52959l56.69132,35.12537c0.46489,5.52708 1.00727,11.04125 1.61422,16.52959l-48.81394,45.45636c-4.94596,4.61021 -7.15421,11.45449 -5.83701,18.07924c1.3172,6.65058 5.97906,12.11309 12.30679,14.46339l62.37336,23.24473c1.54965,5.39794 3.18969,10.75715 4.88139,16.14218l-38.87036,53.97943c-3.9516,5.50125 -4.791,12.64255 -2.19534,18.85406c2.59566,6.26316 8.23897,10.73132 14.97994,11.80316l65.73094,10.69258c2.56983,4.9847 5.20424,9.89192 7.91612,14.72166l-27.6354,60.56544c-2.8152,6.15985 -2.23408,13.30115 1.53674,18.9832c3.77081,5.6433 10.18894,8.93631 16.917,8.66512l66.6349,-2.33739c3.4738,4.33902 6.97342,8.58764 10.53761,12.81043l-15.23821,64.95611c-1.54965,6.58601 0.40033,13.43029 5.20424,18.20837c4.76517,4.81683 11.69985,6.74097 18.33751,5.19132l64.95611,-15.23821c4.22279,3.59002 8.49724,7.07673 12.81043,10.51178l-2.32447,66.76404c-0.25827,6.75389 3.03473,13.17201 8.66512,16.917c5.60456,3.7579 12.7846,4.3261 18.9832,1.51091l60.56544,-27.6354c4.88139,2.71189 9.78861,5.34629 14.72166,7.91612l10.7184,65.73094c1.08475,6.68932 5.55291,12.34554 11.80316,14.97994c6.23734,2.59566 13.43029,1.75627 18.85406,-2.18242l53.97943,-38.87036c5.33337,1.6917 10.69258,3.34466 16.14218,4.89431l23.24473,62.37336c2.36321,6.32773 7.83864,11.01542 14.46339,12.30679c6.63766,1.34303 13.43029,-0.87813 18.07924,-5.83701l45.45636,-48.81394c5.48834,0.63277 11.01542,1.16224 16.52959,1.65296l35.12537,56.69132c3.53836,5.72079 9.82736,9.24624 16.52959,9.24624s13.04288,-3.51254 16.65872,-9.24624l35.12537,-56.69132c5.52708,-0.49072 11.04125,-1.02019 16.52959,-1.65296l45.45636,48.81394c4.61021,4.95888 11.45449,7.18004 18.07924,5.83701c6.65058,-1.30429 12.126,-5.97906 14.46339,-12.30679l23.24473,-62.37336c5.39794,-1.54965 10.75715,-3.20261 16.14218,-4.89431l53.97943,38.87036c5.48834,3.93869 12.64255,4.77808 18.85406,2.18242c6.25025,-2.56983 10.7184,-8.23897 11.80316,-14.97994l10.7184,-65.73094c4.95888,-2.56983 9.8661,-5.24298 14.72166,-7.91612l60.56544,27.6354c6.15985,2.8152 13.30115,2.24699 18.9832,-1.51091c5.63039,-3.77081 8.91048,-10.16311 8.66512,-16.917l-2.32447,-66.76404c4.31319,-3.44797 8.58764,-6.92176 12.79752,-10.51178l64.95611,15.23821c6.59892,1.54965 13.55943,-0.3745 18.33751,-5.19132c4.80391,-4.791 6.75389,-11.67402 5.20424,-18.20837l-15.23821,-64.95611c3.56419,-4.22279 7.07673,-8.47141 10.51178,-12.81043l66.76404,2.33739c6.72806,0.27119 13.17201,-3.02182 16.917,-8.66512c3.77081,-5.63039 4.35193,-12.79752 1.52382,-18.9832l-27.6354,-60.56544c2.69897,-4.89431 5.34629,-9.80153 7.90321,-14.72166l65.73094,-10.69258c6.68932,-1.07184 12.31971,-5.53999 14.8508,-11.80316c2.58275,-6.23734 1.76918,-13.43029 -2.19534,-18.85406l-38.87036,-53.97943c1.67879,-5.33337 3.31883,-10.69258 4.88139,-16.14218l62.37336,-23.24473c6.34065,-2.37613 11.01542,-7.83864 12.30679,-14.46339c1.34303,-6.63766 -0.87813,-13.43029 -5.83701,-18.07924l-48.81394,-45.45636c0.59403,-5.48834 1.13641,-11.01542 1.61422,-16.52959l56.69132,-35.12537c5.74661,-3.53836 9.24624,-9.82736 9.24624,-16.52959s-3.48671,-13.04288 -9.23332,-16.65872l-0.40033,0zm-379.66396,471.35151c-21.69508,-4.67477 -35.38365,-26.08575 -30.7347,-47.78084c4.63603,-21.69508 25.95662,-35.51279 47.6517,-30.86384c21.69508,4.63603 35.51279,26.08575 30.86384,47.78084s-25.95662,35.51279 -47.6517,30.86384l-0.12914,0zm-19.24147,-130.42877c-19.75802,-4.23571 -39.25777,8.34228 -43.39017,28.15195l-20.14543,94.01203c-62.11509,28.15195 -131.72015,43.90672 -204.03709,43.90672c-74.38314,0 -144.63389,-16.40045 -207.91121,-45.84378l-20.14543,-94.01203c-4.23571,-19.75802 -23.63214,-32.41349 -43.39017,-28.15195l-83.03535,17.82096c-15.36735,-15.8839 -29.7016,-32.8009 -42.87362,-50.62186l404.20006,0c4.57146,0 7.61911,-0.82648 7.61911,-4.9847l0,-143.34251c0,-4.15822 -3.04764,-4.9847 -7.61911,-4.9847l-118.16072,0l0,-90.52532l127.71689,0c11.66111,0 62.37336,3.33174 78.51554,68.18455c5.0751,19.88716 16.27131,84.71413 23.89042,105.50526c7.59328,23.24473 38.48295,69.7342 71.41298,69.7342l201.45434,0c2.28573,0 4.72643,-0.25827 7.29626,-0.72317c-13.94684,18.9832 -29.31419,36.9333 -45.71464,53.72116l-84.97241,-18.20837l-0.71026,0.36158zm-559.16494,128.49171c-21.69508,4.67477 -43.00275,-9.14293 -47.6517,-30.86384c-4.63603,-21.69508 9.14293,-43.13189 30.86384,-47.78084c21.69508,-4.63603 43.00275,9.18167 47.6517,30.86384c4.63603,21.69508 -9.15584,43.13189 -30.86384,47.78084zm-153.67351,-621.1509c8.98796,20.27457 -0.15496,44.03585 -20.40371,53.07547c-20.27457,9.00088 -43.90672,-0.15496 -52.94633,-20.40371s0.15496,-44.03585 20.40371,-53.07547c20.27457,-8.98796 43.90672,0.15496 52.94633,20.40371zm-47.13515,111.57471l86.52206,-38.48295c18.46665,-8.20022 26.86058,-29.83074 18.59579,-48.29739l-17.82096,-40.29087l69.99247,0l0,315.09526l-140.75977,0c-12.25514,-43.13189 -18.85406,-88.58826 -18.85406,-135.59427c0,-17.9501 0.96853,-35.64192 2.82811,-53.07547l-0.50364,0.64569zm379.66396,-30.60556l0,-92.97893l166.58725,0c8.61346,0 60.82372,9.95649 60.82372,48.94307c0,32.41349 -40.03259,44.03585 -72.96263,44.03585l-154.96488,0l0.51655,0zm605.65441,83.68104c0,12.34554 -0.45198,24.53611 -1.35594,36.67502l-50.751,0c-5.0751,0 -7.11547,3.33174 -7.11547,8.30353l0,23.24473c0,54.75426 -30.86384,66.76404 -57.98269,69.7342c-25.82748,2.90559 -54.36685,-10.79589 -57.85356,-26.6023c-15.23821,-85.6181 -40.54914,-103.82647 -80.58174,-135.59427c49.7179,-31.50953 101.37286,-78.12813 101.37286,-140.75977c0,-67.28059 -46.10205,-109.63765 -77.48244,-130.42877c-44.16499,-29.05592 -92.97893,-34.8671 -106.15094,-34.8671l-524.29785,0c71.15471,-79.29036 167.87862,-135.59427 276.35404,-156.25625l61.85681,64.82697c13.94684,14.59253 37.06243,15.23821 51.7841,1.18806l69.21765,-66.11835c144.63389,26.98972 267.31442,117.12762 338.33999,241.48694l-47.39343,106.92577c-8.1744,18.46665 0.16788,40.16173 18.59579,48.29739l91.171,40.54914c1.57548,16.14218 2.40196,32.54262 2.40196,49.07221l-0.12914,0.32284zm-524.29785,-541.08571c16.01304,-15.36735 41.45311,-14.72166 56.69132,1.30429c15.23821,16.01304 14.72166,41.45311 -1.33012,56.82046c-16.01304,15.36735 -41.45311,14.72166 -56.69132,-1.3172c-15.23821,-16.01304 -14.72166,-41.45311 1.33012,-56.82046l0,0.01291zm470.06014,378.37258c8.97505,-20.27457 32.67176,-29.44333 52.94633,-20.40371c20.27457,8.98796 29.44333,32.8009 20.40371,53.07547c-8.97505,20.27457 -32.67176,29.44333 -52.94633,20.40371c-20.27457,-8.98796 -29.44333,-32.8009 -20.40371,-53.07547z"/>
  </g>
 </g>
</svg>